<svg xmlns="http://www.w3.org/2000/svg" version="1.1" xmlns:xlink="http://www.w3.org/1999/xlink" xmlns:svgjs="http://svgjs.dev/svgjs" width="40" height="41"><svg width="40" height="41" viewBox="0 0 40 41" fill="none" xmlns="http://www.w3.org/2000/svg">
<path d="M26.666 40.5V33.8334C30.3549 33.8334 33.3327 30.8556 33.3327 27.1667H39.9993C39.9993 34.5445 34.0216 40.5 26.666 40.5Z" fill="#FFD11A"></path>
<path d="M26.6663 40.5V33.8334C22.9775 33.8334 19.9997 30.8556 19.9997 27.1667H13.333C13.333 34.5445 19.3108 40.5 26.6663 40.5Z" fill="#FFD11A"></path>
<path d="M0 27.1666H6.66667C6.66667 30.8555 9.64444 33.8333 13.3333 33.8333V40.5C5.97778 40.5 0 34.5444 0 27.1666Z" fill="#FFD11A"></path>
<path d="M0 27.1666H6.66667C6.66667 23.4778 9.64444 20.5 13.3333 20.5V13.8333C5.97778 13.8333 0 19.8111 0 27.1666Z" fill="#FFD11A"></path>
<path d="M13.3333 0.5V7.16667C9.64444 7.16667 6.66667 10.1444 6.66667 13.8333H0C0 6.47778 5.97778 0.5 13.3333 0.5Z" fill="#FFD11A"></path>
<path d="M13.333 0.5V7.16667C17.0219 7.16667 19.9997 10.1444 19.9997 13.8333H26.6663C26.6663 6.47778 20.6886 0.5 13.333 0.5Z" fill="#FFD11A"></path>
<path d="M40.0003 13.8333H33.3337C33.3337 10.1444 30.3559 7.16667 26.667 7.16667V0.5C34.0225 0.5 40.0003 6.47778 40.0003 13.8333Z" fill="#FFD11A"></path>
<path d="M40.0003 13.8333H33.3337C33.3337 17.5222 30.3559 20.5 26.667 20.5V27.1666C34.0225 27.1666 40.0003 21.2111 40.0003 13.8333Z" fill="#FFD11A"></path>
</svg><style>@media (prefers-color-scheme: light) { :root { filter: none; } }
@media (prefers-color-scheme: dark) { :root { filter: none; } }
</style></svg>