<svg xmlns="http://www.w3.org/2000/svg" width="40" height="41"><svg xmlns="http://www.w3.org/2000/svg" width="40" height="41" fill="none" viewBox="0 0 40 41"><path fill="#FFD11A" d="M26.666 40.5v-6.667a6.66 6.66 0 0 0 6.667-6.666h6.666C40 34.544 34.022 40.5 26.666 40.5M26.666 40.5v-6.667A6.66 6.66 0 0 1 20 27.167h-6.667c0 7.377 5.978 13.333 13.333 13.333M0 27.167h6.667a6.66 6.66 0 0 0 6.666 6.666V40.5C5.978 40.5 0 34.544 0 27.167M0 27.167h6.667a6.66 6.66 0 0 1 6.666-6.667v-6.667C5.978 13.833 0 19.811 0 27.167M13.333.5v6.667a6.66 6.66 0 0 0-6.666 6.666H0C0 6.478 5.978.5 13.333.5M13.333.5v6.667A6.66 6.66 0 0 1 20 13.833h6.666C26.666 6.478 20.69.5 13.333.5M40 13.833h-6.666a6.66 6.66 0 0 0-6.667-6.666V.5C34.022.5 40 6.478 40 13.833"/><path fill="#FFD11A" d="M40 13.833h-6.666a6.66 6.66 0 0 1-6.667 6.667v6.667C34.022 27.167 40 21.21 40 13.833"/></svg><style>@media (prefers-color-scheme:light){:root{filter:none}}@media (prefers-color-scheme:dark){:root{filter:none}}</style></svg>